<svg xmlns="http://www.w3.org/2000/svg" width="50" height="50" viewBox="0 0 50 50">
  <defs>
    <style>
      .cls-1 {
        fill: #01a085;
        fill-rule: evenodd;
      }
    </style>
  </defs>
  <path class="cls-1" d="M40.164,27.349a14.673,14.673,0,0,0-1.566.087A15.74,15.74,0,0,0,34,21.785l-5.644-3.834a6.967,6.967,0,0,0-4.111-1.568H18.155A6.766,6.766,0,0,0,14,17.81L8.455,21.849a15.354,15.354,0,0,0-4.35,18.932c1.569,3.092,3.656,4.878,5.878,5.028,0.212,0.014.427,0.022,0.643,0.022H25.636A6.249,6.249,0,0,0,33.8,47.708a20.822,20.822,0,0,0,6.361.792C47.429,48.5,48,46.761,48,46.226V43.092h0V39.959h0V36.825h0V33.692h0V30.558C48,28.968,44.045,27.349,40.164,27.349ZM19.006,23.432c-4.13,0-9.4,5.711-9.4,10.184a0.784,0.784,0,0,1-1.567,0c0-5.381,5.947-11.75,10.971-11.75A0.783,0.783,0,1,1,19.006,23.432Zm27.426,8.624v1.452a1.678,1.678,0,0,1-.259.129l-0.017.007c-0.108.044-.24,0.089-0.392,0.135l-0.043.013c-0.151.045-.325,0.089-0.516,0.133l-0.074.017c-0.194.043-.407,0.085-0.638,0.125l-0.1.017q-0.354.06-.763,0.111l-0.114.014c-0.281.034-.578,0.064-0.9,0.091l-0.116.009c-0.329.026-.674,0.047-1.04,0.062l-0.086,0c-0.385.014-.787,0.023-1.211,0.023-3.565,0-5.762-.557-6.269-0.891V32.436c0.867,0.072,1.78.143,2.647,0.205a30.284,30.284,0,0,0,3.622.191c0.432,0,.838-0.007,1.224-0.019,0.128,0,.242-0.011.364-0.016,0.249-.01.5-0.021,0.725-0.036,0.135-.009.259-0.02,0.388-0.03,0.2-.016.394-0.032,0.578-0.051,0.125-.013.245-0.027,0.363-0.042,0.168-.02.331-0.041,0.485-0.065q0.167-.025.325-0.052c0.146-.025.284-0.051,0.417-0.078,0.094-.019.188-0.038,0.277-0.059,0.129-.029.248-0.06,0.364-0.091,0.077-.02.156-0.041,0.228-0.062,0.116-.035.221-0.07,0.325-0.106,0.057-.02.12-0.039,0.174-0.059C46.411,32.063,46.423,32.06,46.433,32.056Zm-5.046,3.891c0.129,0,.243-0.011.367-0.016,0.248-.01.5-0.021,0.724-0.036,0.134-.009.257-0.02,0.384-0.03,0.2-.016.4-0.032,0.582-0.052,0.124-.013.24-0.028,0.357-0.042,0.169-.02.335-0.042,0.49-0.066,0.109-.016.215-0.033,0.318-0.051,0.148-.025.289-0.052,0.425-0.079,0.092-.019.183-0.037,0.269-0.056,0.132-.03.255-0.062,0.374-0.094,0.074-.02.15-0.039,0.219-0.059,0.121-.036.232-0.074,0.34-0.111,0.053-.018.11-0.036,0.159-0.055l0.038-.013v1.452a1.671,1.671,0,0,1-.259.129l-0.017.007c-0.108.044-.241,0.089-0.392,0.135l-0.043.013c-0.151.045-.325,0.089-0.516,0.133l-0.074.017c-0.194.043-.407,0.085-0.638,0.125l-0.1.017q-0.354.06-.763,0.111l-0.114.014c-0.281.034-.578,0.064-0.9,0.091l-0.116.009c-0.329.026-.674,0.047-1.04,0.062l-0.086,0c-0.385.014-.787,0.023-1.212,0.023-3.565,0-5.762-.557-6.269-0.891V35.573c1.016,0.084,2.092.165,3.082,0.233a31.037,31.037,0,0,0,3.187.158C40.6,35.966,41,35.959,41.387,35.947Zm0,3.133c0.129,0,.243-0.011.367-0.016,0.248-.01.5-0.021,0.724-0.036,0.134-.009.257-0.02,0.384-0.03,0.2-.016.4-0.032,0.582-0.052,0.124-.012.24-0.027,0.357-0.041,0.169-.02.335-0.042,0.49-0.066,0.109-.017.215-0.033,0.318-0.051,0.148-.025.289-0.052,0.425-0.079,0.092-.019.183-0.037,0.269-0.056,0.132-.03.255-0.062,0.374-0.094,0.074-.02.15-0.039,0.219-0.059,0.121-.036.232-0.074,0.34-0.111,0.053-.018.11-0.036,0.159-0.055l0.038-.013v1.452a1.672,1.672,0,0,1-.259.129l-0.017.007c-0.108.044-.241,0.089-0.392,0.135l-0.043.013c-0.151.045-.325,0.089-0.516,0.133l-0.074.017c-0.194.043-.407,0.085-0.638,0.125l-0.1.017q-0.354.06-.763,0.111l-0.114.014c-0.281.034-.578,0.064-0.9,0.091l-0.116.009c-0.329.026-.674,0.047-1.04,0.062l-0.086,0c-0.385.014-.787,0.023-1.212,0.023-0.338,0-.671-0.006-1-0.017-0.1,0-.206-0.009-0.31-0.013-0.223-.009-0.444-0.02-0.661-0.033l-0.348-.026c-0.2-.015-0.393-0.031-0.583-0.051l-0.342-.037-0.147-.019a6.228,6.228,0,0,0-.751-1.633,28.056,28.056,0,0,0,4.142.262C40.6,39.1,41,39.092,41.387,39.081Zm0,3.133c0.129,0,.243-0.011.367-0.016,0.248-.01.5-0.021,0.724-0.036,0.134-.009.257-0.02,0.384-0.03,0.2-.016.4-0.032,0.582-0.052,0.124-.013.24-0.028,0.357-0.042,0.169-.02.335-0.042,0.49-0.066,0.109-.016.215-0.033,0.318-0.051,0.148-.025.289-0.052,0.425-0.079,0.092-.019.183-0.037,0.269-0.056,0.132-.03.255-0.062,0.374-0.094,0.074-.02.15-0.039,0.219-0.059,0.121-.036.232-0.074,0.34-0.111,0.053-.018.11-0.036,0.159-0.055l0.038-.012v1.452a1.671,1.671,0,0,1-.259.129l-0.017.007c-0.108.044-.241,0.089-0.392,0.135l-0.043.013c-0.151.045-.325,0.089-0.516,0.133l-0.074.017c-0.194.043-.407,0.085-0.638,0.125l-0.1.017q-0.354.06-.763,0.111l-0.114.014c-0.281.034-.578,0.064-0.9,0.091L42.5,43.71c-0.329.026-.674,0.047-1.04,0.062l-0.086,0c-0.385.014-.787,0.023-1.212,0.023-0.508,0-1-.016-1.487-0.038l-0.339-.017c-0.472-.027-0.933-0.064-1.368-0.112l-0.034,0a6.2,6.2,0,0,0,.094-1.075c0-.059-0.006-0.118-0.007-0.178s0.007-.094.007-0.142-0.006-.1-0.008-0.154c0.639,0.066,1.322.1,2.019,0.126,0.318,0.017.675,0.027,1.123,0.027C40.6,42.233,41,42.226,41.387,42.214ZM46.229,30.48l-0.027.012c-0.087.038-.188,0.076-0.308,0.115l-0.039.012q-0.182.058-.41,0.117l-0.045.012c-0.158.04-.335,0.078-0.524,0.117l-0.1.02c-0.194.038-.4,0.074-0.625,0.108l-0.1.014c-0.227.034-.467,0.065-0.723,0.094l-0.046.005c-0.261.029-.541,0.053-0.831,0.075l-0.161.012q-0.434.031-.907,0.049l-0.173.005c-0.335.011-.681,0.018-1.045,0.018s-0.709-.007-1.045-0.018l-0.173-.005q-0.474-.018-0.907-0.049l-0.161-.012c-0.291-.022-0.571-0.047-0.831-0.075L37,31.1c-0.256-.029-0.5-0.06-0.723-0.094l-0.1-.014c-0.224-.035-0.432-0.071-0.625-0.108l-0.1-.02c-0.189-.038-0.366-0.078-0.524-0.117l-0.045-.012c-0.152-.039-0.289-0.078-0.41-0.117l-0.039-.012c-0.12-.039-0.22-0.078-0.308-0.115L34.1,30.48a11.043,11.043,0,0,1,6.065-1.564A11.036,11.036,0,0,1,46.229,30.48Zm-19.5,14.155a4.8,4.8,0,0,1-.348-0.711l-0.019-.052a4.636,4.636,0,0,1-.212-0.734c0-.017,0-0.035-0.008-0.052a4.569,4.569,0,0,1-.074-0.7c0-.032,0-0.064,0-0.1a4.806,4.806,0,0,1,.049-0.717c0.007-.051.014-0.1,0.023-0.153a4.555,4.555,0,0,1,.143-0.6c0.006-.021.016-0.041,0.023-0.061a4.583,4.583,0,0,1,.237-0.574l0.026-.053a4.832,4.832,0,0,1,1.9-1.992l0.005,0a4.554,4.554,0,0,1,.576-0.272l0.147-.054a4.509,4.509,0,0,1,.549-0.161l0.06-.016a4.772,4.772,0,0,1,.678-0.085l0.143-.007a4.611,4.611,0,0,1,.675.025l0.064,0.009a4.583,4.583,0,0,1,.686.14l0.021,0.005A4.7,4.7,0,1,1,26.726,44.636Zm19.706,1.407c-0.508.334-2.705,0.891-6.269,0.891a25.446,25.446,0,0,1-4.59-.372,6.215,6.215,0,0,0,.889-1.412c0.071,0.009.147,0.015,0.219,0.023,0.117,0.014.236,0.026,0.355,0.038,0.208,0.021.42,0.041,0.636,0.057L38.046,45.3c0.233,0.015.469,0.027,0.708,0.037,0.112,0,.223.011,0.336,0.015,0.354,0.011.711,0.018,1.074,0.018,0.432,0,.837-0.007,1.223-0.019,0.129,0,.243-0.011.367-0.016,0.248-.01.5-0.021,0.724-0.036,0.134-.009.257-0.02,0.384-0.03,0.2-.016.4-0.032,0.582-0.052,0.124-.012.24-0.027,0.357-0.041,0.169-.02.335-0.042,0.49-0.066,0.109-.017.215-0.033,0.318-0.051,0.148-.025.289-0.052,0.425-0.079,0.092-.019.183-0.037,0.269-0.056,0.132-.03.255-0.062,0.374-0.094,0.074-.02.15-0.039,0.219-0.059,0.121-.036.232-0.074,0.34-0.111,0.053-.018.11-0.036,0.159-0.055l0.038-.012v1.454h0Zm-19.59-31.77V12.465a0.784,0.784,0,0,0-.784-0.783h-9.4a0.783,0.783,0,1,0,0,1.567h8.62v0.783h-8.62a0.783,0.783,0,1,0,0,1.567H26a3.879,3.879,0,0,0,5.262-.229,0.783,0.783,0,1,0-1.108-1.108A2.406,2.406,0,0,1,26.842,14.272ZM15.915,9.355A2.274,2.274,0,0,0,18.054,10.9h5.823a2.274,2.274,0,0,0,2.139-1.543,10.712,10.712,0,0,1,2-3.482,2.342,2.342,0,0,0,.794-2.226A2.23,2.23,0,0,0,27.3,1.938a6.167,6.167,0,0,0-6.032.758,0.762,0.762,0,0,1-.956,0,6.166,6.166,0,0,0-6.031-.758A2.229,2.229,0,0,0,12.77,3.647a2.342,2.342,0,0,0,.795,2.226A12.359,12.359,0,0,1,15.915,9.355Z"/>
</svg>
