<?xml version="1.0" encoding="iso-8859-1"?>
<!-- Generator: Adobe Illustrator 19.1.0, SVG Export Plug-In . SVG Version: 6.00 Build 0)  -->
<svg version="1.1" id="Capa_1" xmlns="http://www.w3.org/2000/svg" xmlns:xlink="http://www.w3.org/1999/xlink" x="0px" y="0px"
	 viewBox="0 0 315.268 315.268" style="enable-background:new 0 0 315.268 315.268;" xml:space="preserve">
<g>
	<path d="M157.644,16.748l8.721,7.288l5.778,4.839l7.057-2.693l10.611-4.062l5.874,9.724l3.901,6.459l7.545-0.264l11.363-0.398
		l2.404,11.112l1.6,7.372l7.211,2.198l10.874,3.323l-1.33,11.286l-0.887,7.494l6.105,4.422l9.216,6.665l-4.936,10.257l-3.271,6.806
		l4.351,6.17l6.555,9.287l-7.989,8.091l-5.302,5.373l2.108,7.249l3.168,10.906l-10.174,5.051l-6.761,3.355l-0.373,7.545
		l-0.546,11.369l-11.26,1.472l-7.487,0.977l-2.789,7.018l-4.203,10.572l-11.138-2.262l-7.397-1.504l-4.91,5.746l-7.397,8.612
		l-9.794-5.758l-6.51-3.83l-6.51,3.83l-9.807,5.758l-7.397-8.625l-4.917-5.733l-7.384,1.504l-11.138,2.262l-4.203-10.572
		l-2.789-7.018l-7.487-0.977l-11.266-1.472l-0.546-11.356l-0.373-7.545l-6.761-3.348l-10.174-5.058l3.168-10.906l2.108-7.249
		l-5.296-5.373l-7.989-8.091l6.555-9.293l4.351-6.17l-3.271-6.812l-4.942-10.251l9.223-6.665l6.112-4.422l-0.893-7.494l-1.33-11.286
		l10.868-3.323l7.211-2.204l1.6-7.365l2.404-11.112l11.369,0.398l7.539,0.264l3.901-6.453l5.887-9.724l10.604,4.062l7.057,2.699
		l5.778-4.839L157.644,16.748 M157.644,0l-16.973,14.178l-20.649-7.899l-11.44,18.908l-22.095-0.758l-4.685,21.594l-21.144,6.453
		l2.59,21.954L45.328,87.405l9.582,19.936L42.186,125.42l15.534,15.733l-6.176,21.234l19.801,9.833l1.06,22.095l21.922,2.86
		l8.169,20.54l21.671-4.396l14.396,16.78l19.075-11.196l19.068,11.196l14.39-16.78l21.678,4.396l8.169-20.54l21.916-2.86
		l1.06-22.095l19.801-9.833l-6.176-21.234l15.54-15.733l-12.725-18.079l9.57-19.936l-17.899-12.969l2.584-21.954l-21.151-6.453
		l-4.685-21.594l-22.095,0.758L195.254,6.285l-20.662,7.899L157.644,0L157.644,0z M210.222,230.325l-14.274-2.892l-9.486,11.048
		l-6.992,8.156l-9.267-5.437l-12.558-7.384l-12.564,7.384l-9.261,5.431l-7.005-8.143l-9.48-11.061l-14.28,2.892l-7.667,1.555v83.395
		h1.266l58.985-53.131l58.979,53.131h1.279V231.88L210.222,230.325z M99.185,121.12c-3.56,0-6.427-2.879-6.427-6.427
		c0-29.255,19.904-54.178,48.381-60.618c3.445-0.765,6.902,1.388,7.686,4.852c0.778,3.464-1.395,6.902-4.852,7.686
		c-22.237,5.019-38.375,25.238-38.375,48.066C105.612,118.241,102.739,121.12,99.185,121.12z"/>
</g>
<g>
</g>
<g>
</g>
<g>
</g>
<g>
</g>
<g>
</g>
<g>
</g>
<g>
</g>
<g>
</g>
<g>
</g>
<g>
</g>
<g>
</g>
<g>
</g>
<g>
</g>
<g>
</g>
<g>
</g>
</svg>
