<svg height="412pt" viewBox="0 -44 412.00042 412" width="412pt" xmlns="http://www.w3.org/2000/svg"><path d="m412 37.582031c0-19.972656-15.625-36.460937-35.570312-37.5273435-19.945313-1.0703125-37.242188 13.6523435-39.375 33.5156245-2.128907 19.859376 11.648437 37.917969 31.367187 41.105469v73.410157c-6.261719-2.503907-12.859375-4.070313-19.578125-4.648438v-6.382812c-.023438-19.871094-16.128906-35.976563-36-36h-65.753906v-23.929688c-.011719-8.832031-7.167969-15.988281-16-16h-51.089844v-23.332031c0-3.316407-2.6875-6-6-6s-6 2.683593-6 6v23.332031h-50.246094c-8.832031.011719-15.988281 7.167969-16 16v23.929688h-65.753906c-19.871094.023437-35.9765625 16.128906-36 36v150.527343c.0234375 19.871094 16.128906 35.976563 36 36h276.84375c19.871094-.023437 35.976562-16.128906 36-36v-6.382812c29.421875-2.546875 53.976562-23.507813 61.109375-52.167969s-4.734375-58.683594-29.53125-74.722656v-79.632813c18.1875-2.964843 31.554687-18.664062 31.578125-37.09375zm-298.246094 39.542969c.003906-2.207031 1.792969-3.996094 4-4h113.335938c2.207031 0 4 1.789062 4 4v23.929688h-121.335938zm223.089844 210.457031c-.015625 13.25-10.753906 23.984375-24 24h-276.84375c-13.25-.015625-23.984375-10.75-24-24v-150.527343c.015625-13.25 10.75-23.984376 24-24h276.84375c13.246094.015624 23.984375 10.75 24 24zm63.15625-75.265625c-.035156 29.234375-22.089844 53.742188-51.15625 56.847656v-113.691406c29.0625 3.105469 51.121094 27.613282 51.15625 56.84375zm-51.15625-174.734375c0-14.125 11.449219-25.578125 25.578125-25.578125 14.125 0 25.578125 11.453125 25.578125 25.578125 0 14.128907-11.453125 25.578125-25.578125 25.578125-14.121094-.015625-25.5625-11.457031-25.578125-25.578125zm0 0"/><path d="m83.753906 176.316406c-14.351562.019532-25.984375 11.648438-26 26v16.667969c0 3.316406 2.6875 6 6 6h40c3.3125 0 6-2.683594 6-6v-16.667969c-.015625-14.351562-11.648437-25.980468-26-26zm14 36.667969h-28v-10.667969c0-7.730468 6.269532-14 14-14 7.730469 0 14 6.269532 14 14zm0 0"/><path d="m265.089844 176.316406c-14.355469.019532-25.984375 11.648438-26 26v16.667969c0 3.316406 2.683594 6 6 6h40c3.3125 0 6-2.683594 6-6v-16.667969c-.019532-14.351562-11.648438-25.980468-26-26zm14 36.667969h-28v-10.667969c0-7.730468 6.265625-14 14-14 7.730468 0 14 6.269532 14 14zm0 0"/><path d="m214.421875 244.914062h-80c-3.316406 0-6 2.6875-6 6 0 25.40625 20.59375 46 46 46 25.402344 0 46-20.59375 46-46 0-3.3125-2.6875-6-6-6zm-40 40c-16.457031-.019531-30.542969-11.804687-33.472656-28h66.941406c-2.925781 16.195313-17.011719 27.980469-33.46875 28zm0 0"/></svg>