<svg xmlns="http://www.w3.org/2000/svg" width="50" height="50" viewBox="0 0 50 50">
  <defs>
    <style>
      .cls-1 {
        fill: #01a085;
        fill-rule: evenodd;
      }
    </style>
  </defs>
  <path class="cls-1" d="M41.854,42.832H39V40.949a0.2,0.2,0,0,0-.4,0v1.883H34.982V40.949a0.2,0.2,0,0,0-.4,0v1.883H30.968V40.949a0.2,0.2,0,0,0-.4,0v1.883H26.954V40.949a0.2,0.2,0,0,0-.4,0v1.883H22.94V40.949a0.2,0.2,0,0,0-.4,0v1.883H18.926V40.949a0.2,0.2,0,0,0-.4,0v1.883H14.912V40.949a0.2,0.2,0,0,0-.4,0v1.883H10.9V40.949a0.2,0.2,0,0,0-.4,0v1.883H3.2V38.418H4.816a0.195,0.195,0,1,0,0-.389H3.2V34.523H4.816a0.195,0.195,0,1,0,0-.389H3.2V30.628H4.816a0.195,0.195,0,1,0,0-.389H3.2V26.734H4.816a0.195,0.195,0,1,0,0-.389H3.2V22.839H4.816a0.195,0.195,0,1,0,0-.389H3.2V18.944H4.816a0.195,0.195,0,1,0,0-.389H3.2V15.049H4.816a0.195,0.195,0,1,0,0-.389H3.2V11.155H4.816a0.195,0.195,0,1,0,0-.389H3.2V7.584a0.6,0.6,0,0,0-1.2,0V43.416A0.594,0.594,0,0,0,2.6,44H41.854A0.585,0.585,0,1,0,41.854,42.832ZM8.28,12.3h4.114V38.7H8.28V12.3ZM21.124,24.725a9.927,9.927,0,0,1-1.309-2.185h-2.8V38.7h4.114V24.725Zm8.63,3.933c-0.133.005-.267,0.014-0.4,0.014a10.654,10.654,0,0,1-3.715-.664V38.7h4.114V28.657Zm9.031,2.4-3.959-3.9c-0.051.03-.1,0.057-0.155,0.086V38.7h4.114V31.059ZM47.66,35.1L36.55,24.162a8.71,8.71,0,0,0-.761-11.734,9.382,9.382,0,0,0-12.969,0,8.723,8.723,0,0,0,0,12.583,9.389,9.389,0,0,0,12.094.738l11.11,10.937a1.181,1.181,0,0,0,1.635,0A1.1,1.1,0,0,0,47.66,35.1Zm-13.5-11.675a7.016,7.016,0,0,1-9.7,0,6.522,6.522,0,0,1,0-9.41,7.016,7.016,0,0,1,9.7,0A6.522,6.522,0,0,1,34.156,23.425ZM29.64,17.767c-1.049-.421-1.352-0.676-1.352-1.137a0.885,0.885,0,0,1,1.062-.8,2.736,2.736,0,0,1,1.4.367,0.208,0.208,0,0,0,.167.014,0.2,0.2,0,0,0,.12-0.114l0.3-.763a0.191,0.191,0,0,0-.086-0.237,3.39,3.39,0,0,0-1.448-.419V13.743a0.2,0.2,0,0,0-.2-0.195H28.861a0.2,0.2,0,0,0-.2.195v1.006a2.076,2.076,0,0,0-1.8,2.021c0,1.215,1.005,1.765,2.089,2.179,0.867,0.34,1.22.686,1.22,1.193a1.043,1.043,0,0,1-1.215.937,3.032,3.032,0,0,1-1.6-.463,0.206,0.206,0,0,0-.174-0.023,0.194,0.194,0,0,0-.126.119l-0.286.773a0.192,0.192,0,0,0,.073.224,3.664,3.664,0,0,0,1.737.536v0.98a0.2,0.2,0,0,0,.2.195h0.75a0.2,0.2,0,0,0,.2-0.195v-1.04a2.207,2.207,0,0,0,1.881-2.124C31.609,19,31.02,18.313,29.64,17.767Z"/>
</svg>
