<svg xmlns="http://www.w3.org/2000/svg" width="25" height="25" viewBox="0 0 25 25">
  <defs>
    <style>
      .cls-1 {
        fill: #01a085;
        fill-rule: evenodd;
      }
    </style>
  </defs>
  <path class="cls-1" d="M2.01,23.985C2.007,23.94,2,23.9,2,23.861c0-1.361,0-2.722,0-4.082,0-.245.03-0.49,0.042-0.736a4.974,4.974,0,0,1,.109-0.749,7.938,7.938,0,0,1,.24-0.912c0.116-.348.261-0.683,0.4-1.021C2.864,16.2,2.958,16.05,3.04,15.9s0.173-.3.266-0.444a9.5,9.5,0,0,1,.729-0.993A9.072,9.072,0,0,1,5.264,13.25c0.269-.22.554-0.421,0.84-0.619,0.178-.123.368-0.226,0.555-0.335,0.142-.083.284-0.168,0.432-0.241,0.216-.105.436-0.2,0.655-0.3,0.1-.045.2-0.086,0.306-0.127s0.192-.076.29-0.111a0.067,0.067,0,0,1,.05.01,0.352,0.352,0,0,1,.048.044c0.135,0.122.271,0.243,0.4,0.368a0.172,0.172,0,0,0,.168.042c0.2-.041.4-0.081,0.6-0.117,0.088-.016.178-0.022,0.267-0.033L10,11.813c-0.134-.088-0.25-0.16-0.362-0.238a4.946,4.946,0,0,1-.8-0.689,5.307,5.307,0,0,1-.485-0.6,0.908,0.908,0,0,1-.1-0.177A1.792,1.792,0,0,0,8.1,9.883a4.719,4.719,0,0,1-.383-0.835,5.471,5.471,0,0,1-.244-0.97A6.01,6.01,0,0,1,7.42,6.809a4.467,4.467,0,0,1,.116-0.793A5.471,5.471,0,0,1,8.29,4.253c0.118-.168.242-0.332,0.371-0.491a5.057,5.057,0,0,1,.93-0.857c0.245-.182.519-0.309,0.776-0.468a0.054,0.054,0,0,1,.019-0.01,4.924,4.924,0,0,0,.6-0.222c0.222-.054.445-0.107,0.669-0.149a5.672,5.672,0,0,1,1.3-.039,1.743,1.743,0,0,1,.319.048c0.24,0.056.48,0.113,0.717,0.184a4.705,4.705,0,0,1,.459.181,4.1,4.1,0,0,1,.688.38,5.565,5.565,0,0,1,.493.373,5.17,5.17,0,0,1,.574.571,4.149,4.149,0,0,1,.483.668c0.123,0.218.235,0.442,0.341,0.67,0.061,0.132.1,0.275,0.149,0.414a0.585,0.585,0,0,1,.065.232,0.1,0.1,0,0,0,.009.032,3.991,3.991,0,0,1,.184.9,6.461,6.461,0,0,1,.028.88,2.987,2.987,0,0,1-.062.509c-0.029.172-.066,0.343-0.106,0.512a5.091,5.091,0,0,1-.385,1.05,4.626,4.626,0,0,1-.657,1.016,5.4,5.4,0,0,1-.7.693,4.974,4.974,0,0,1-.585.412,0.274,0.274,0,0,0-.044.047,0.39,0.39,0,0,0,.068.019,5.908,5.908,0,0,1,.958.13,0.12,0.12,0,0,0,.117-0.035c0.115-.107.231-0.211,0.344-0.32,0.072-.069.068-0.066,0.168-0.033a8.383,8.383,0,0,1,.844.342,10.75,10.75,0,0,1,1.049.557,9.241,9.241,0,0,1,.877.6c0.207,0.159.4,0.332,0.6,0.507,0.165,0.148.324,0.3,0.483,0.46a8.086,8.086,0,0,1,.679.791,8.55,8.55,0,0,1,.683,1.028,6.924,6.924,0,0,1,.445.913c0.118,0.3.226,0.61,0.321,0.921a6.8,6.8,0,0,1,.155.682c0.039,0.2.06,0.4,0.1,0.605a5.8,5.8,0,0,1,.051.833c0.006,0.171,0,.343.01,0.514,0.013,0.234.04,0.467,0.053,0.7,0.01,0.193.009,0.387,0.01,0.581a0.144,0.144,0,0,1-.019.069c0.014,0.092.038,0.091,0.038,0.144,0,0.686.044,1.372,0.044,2.058v0.116C22.876,24,2.432,24.012,2.01,23.985ZM12.1,3.094h0c0-.082,0-0.164,0-0.246,0-.105-0.013-0.119-0.108-0.116a0.641,0.641,0,0,0-.086.007l-0.592.1a0.1,0.1,0,0,0-.05.02,0.582,0.582,0,0,1-.225.091,3.156,3.156,0,0,0-.738.344c-0.206.132-.4,0.281-0.6,0.423-0.061.044-.062,0.087-0.006,0.147,0.1,0.106.2,0.213,0.307,0.313a0.4,0.4,0,0,1,.124.341,0.341,0.341,0,0,1-.434.29A0.457,0.457,0,0,1,9.5,4.682C9.4,4.577,9.3,4.471,9.2,4.366,9.134,4.3,9.113,4.3,9.061,4.378,8.98,4.492,8.9,4.6,8.823,4.723a4.75,4.75,0,0,0-.391.754,4.1,4.1,0,0,0-.206.642C8.18,6.326,8.148,6.535,8.11,6.743c-0.019.106,0,.128,0.1,0.13q0.242,0,.483,0A0.323,0.323,0,0,1,9,7.08a0.351,0.351,0,0,1-.317.5c-0.154.01-.308,0-0.462,0-0.106,0-.119.009-0.1,0.112,0.03,0.2.065,0.394,0.1,0.591a1.838,1.838,0,0,0,.056.2c0.04,0.13.077,0.262,0.125,0.389a2.159,2.159,0,0,0,.168.384,1.646,1.646,0,0,0,.318.53,0.122,0.122,0,0,1,.016.029c0.057,0.085.113,0.171,0.174,0.253,0.046,0.062.065,0.062,0.12,0.006C9.273,10,9.352,9.913,9.433,9.829A0.592,0.592,0,0,1,9.7,9.637a0.31,0.31,0,0,1,.322.094,0.37,0.37,0,0,1-.009.512c-0.108.114-.219,0.226-0.328,0.338-0.059.061-.06,0.095,0,0.145C9.8,10.807,9.9,10.887,10,10.963a4.182,4.182,0,0,0,1.65.705c0.105,0.019.213,0.024,0.319,0.042s0.12,0.008.121-.1c0-.175,0-0.35,0-0.525a0.314,0.314,0,0,1,.11-0.232,0.361,0.361,0,0,1,.419-0.028,0.387,0.387,0,0,1,.15.328c0,0.149,0,.3,0,0.447a0.168,0.168,0,0,0,.009.077,0.089,0.089,0,0,0,.059.047,2.55,2.55,0,0,0,.275-0.039c0.109-.021.216-0.052,0.325-0.073a3.219,3.219,0,0,0,.651-0.216,3.952,3.952,0,0,0,.681-0.372c0.141-.1.274-0.2,0.407-0.31,0.06-.048.055-0.071,0-0.124-0.117-.12-0.237-0.238-0.349-0.363A0.369,0.369,0,0,1,14.869,9.7a0.334,0.334,0,0,1,.475.044c0.11,0.112.218,0.226,0.328,0.338,0.056,0.057.073,0.056,0.12,0A4.475,4.475,0,0,0,16.5,8.8a4.421,4.421,0,0,0,.145-0.5c0.046-.2.079-0.407,0.11-0.613,0.013-.087-0.007-0.1-0.1-0.1-0.15,0-.3-0.006-0.451,0a0.342,0.342,0,0,1-.174-0.042,0.351,0.351,0,0,1-.191-0.373,0.333,0.333,0,0,1,.336-0.3c0.161,0,.322,0,0.483,0,0.083,0,.106-0.023.1-0.106-0.018-.14-0.043-0.279-0.062-0.419-0.027-.19-0.1-0.368-0.141-0.554a2.168,2.168,0,0,0-.277-0.671c-0.088-.143-0.156-0.3-0.246-0.442-0.072-.114-0.164-0.215-0.247-0.322a0.041,0.041,0,0,0-.014-0.016A0.129,0.129,0,0,0,15.7,4.337a0.979,0.979,0,0,0-.183.169,1.241,1.241,0,0,1-.263.26,0.317,0.317,0,0,1-.469-0.134,0.38,0.38,0,0,1,.078-0.44c0.1-.112.212-0.222,0.318-0.333,0.063-.067.061-0.08-0.008-0.139a4.134,4.134,0,0,0-1.3-.756,4.857,4.857,0,0,0-.495-0.139c-0.149-.036-0.3-0.064-0.452-0.086-0.12-.017-0.14.006-0.142,0.129,0,0.153,0,.306-0.006.458a0.308,0.308,0,0,1-.231.334,0.337,0.337,0,0,1-.447-0.309C12.1,3.266,12.1,3.18,12.1,3.094Zm0.271,4.022,0.089-.1,1.462-1.685a1.05,1.05,0,0,1,.074-0.081,0.251,0.251,0,0,1,.343,0,0.266,0.266,0,0,1,.032.353,0.852,0.852,0,0,1-.056.068q-0.788.909-1.576,1.818a0.388,0.388,0,0,1-.214.139,0.172,0.172,0,0,1-.176-0.051c-0.028-.029-0.054-0.06-0.081-0.09L11.351,6.459c-0.022-.025-0.045-0.048-0.064-0.075a0.156,0.156,0,0,1,0-.213,0.16,0.16,0,0,1,.216-0.015,0.669,0.669,0,0,1,.076.079l0.693,0.78Z"/>
</svg>
