<svg xmlns="http://www.w3.org/2000/svg" width="25" height="25" viewBox="0 0 25 25">
  <defs>
    <style>
      .cls-1 {
        fill: #079e84;
        fill-rule: evenodd;
      }
    </style>
  </defs>
  <path class="cls-1" d="M24.12,13.06a6.181,6.181,0,0,1-3.361,0,0.956,0.956,0,0,1-.815-1.307A6.362,6.362,0,0,0,24.9,11.75,0.929,0.929,0,0,1,24.12,13.06Zm0.435-1.668a4.371,4.371,0,0,1-2.157.426,4.339,4.339,0,0,1-2.088-.422c-0.541-.293-0.557-0.721,0-0.969a5.075,5.075,0,0,1,4.237,0C25.106,10.667,25.1,11.1,24.555,11.391ZM22.1,9.6a2.153,2.153,0,0,0-.485.027c-1.866.29-2.106,0.569-2.106,2.441,0,1.531-.031,3.064.017,4.594a0.558,0.558,0,0,1-.655.693,7.163,7.163,0,0,0-.9.068c-0.826.124-.825,0.131-0.825-0.732V11.607c0-1.833.01-3.667-.007-5.5,0-.407.094-0.574,0.538-0.567,1.461,0.025,2.923.022,4.384,0a0.451,0.451,0,0,1,.565.548q-0.039,1.5,0,2.993A0.418,0.418,0,0,1,22.1,9.6ZM15.569,3.523A22.854,22.854,0,0,1,5.186,11.959,24.176,24.176,0,0,1,.835,13.394c-0.329.074-.657,0.26-0.765-0.321-0.086-.466-0.071-0.71.469-0.832A24.027,24.027,0,0,0,10.686,7.26a19.654,19.654,0,0,0,3.9-4.332c0.33-.5.836-1-0.377-1.269L16.816,0a11.981,11.981,0,0,1,.139,3.183C16.214,2.476,15.923,2.984,15.569,3.523ZM4.479,14.451c1.438,0.023,2.877.026,4.315,0a0.476,0.476,0,0,1,.578.6c-0.028.9-.009,1.81-0.009,2.715,0,0.882-.019,1.764.008,2.646,0.013,0.433-.091.62-0.572,0.611C7.338,21,5.876,21,4.414,21.024c-0.448.008-.54-0.166-0.536-0.57,0.017-1.81.023-3.621,0-5.431C3.869,14.547,4.042,14.444,4.479,14.451Zm6.607-3.565c1.461,0.027,2.922.022,4.384,0a0.45,0.45,0,0,1,.559.548q-0.025,4.524,0,9.048a0.444,0.444,0,0,1-.559.541q-2.226-.032-4.453,0c-0.441.007-.547-0.153-0.542-0.565,0.02-1.485.008-2.97,0.008-4.454s0.013-2.97-.008-4.455C10.468,11.094,10.57,10.876,11.086,10.886ZM17.2,19.657a6.487,6.487,0,0,0,4.474-.169,0.874,0.874,0,0,1-.633,1.247,5.768,5.768,0,0,1-3.677-.005,0.884,0.884,0,0,1-.669-0.55,0.7,0.7,0,0,1,.017-0.606C16.868,19.372,17.045,19.608,17.2,19.657Zm3.715,2.595a6.191,6.191,0,0,1-3.435,0,0.945,0.945,0,0,1-.764-1.3,6.322,6.322,0,0,0,4.967,0A0.927,0.927,0,0,1,20.915,22.252Zm-3.666.374a6.622,6.622,0,0,0,4.434-.2,0.93,0.93,0,0,1-.762,1.29,5.964,5.964,0,0,1-3.416.008,1.446,1.446,0,0,1-.666-0.353,0.706,0.706,0,0,1-.124-0.838C16.855,22.288,17.073,22.575,17.248,22.626Zm5.4-1.431a4.485,4.485,0,0,0,2.239-.5,0.928,0.928,0,0,1-.725,1.328,5.368,5.368,0,0,1-1.5.25c-0.314,0-.643.087-0.645-0.45A0.507,0.507,0,0,1,22.645,21.194Zm1.523-.651a6.511,6.511,0,0,1-1.639.243c-0.323.022-.524-0.037-0.506-0.442,0.015-.354,0-0.606.495-0.595a4.833,4.833,0,0,0,2.373-.526A0.937,0.937,0,0,1,24.168,20.543ZM24.1,19.026a5.021,5.021,0,0,1-1.438.206c-0.316,0-.65.11-0.643-0.435,0.006-.435.1-0.591,0.574-0.6a4.734,4.734,0,0,0,2.3-.523A0.954,0.954,0,0,1,24.1,19.026Zm-2.378-.416a0.617,0.617,0,0,1-.46.555,4.754,4.754,0,0,1-1.895.378,5.27,5.27,0,0,1-2.18-.356,0.669,0.669,0,0,1-.494-0.533,0.578,0.578,0,0,1,.457-0.55,5.417,5.417,0,0,1,4.134.013A0.583,0.583,0,0,1,21.723,18.611Zm2.447-1.083a5.814,5.814,0,0,1-3.479-.006c-0.722-.232-0.818-0.409-0.762-1.284a6.446,6.446,0,0,0,4.96.008A0.9,0.9,0,0,1,24.17,17.527Zm0.741-2.838c0.085,0.9-.026,1.078-0.848,1.321A5.853,5.853,0,0,1,20.713,16a0.932,0.932,0,0,1-.765-1.3A6.422,6.422,0,0,0,24.91,14.689ZM20.422,13.4A6.51,6.51,0,0,0,24.9,13.23a0.9,0.9,0,0,1-.7,1.268,5.876,5.876,0,0,1-3.613-.032,0.8,0.8,0,0,1-.675-0.616,0.86,0.86,0,0,1,.032-0.538C20.092,13.108,20.265,13.356,20.422,13.4Z"/>
</svg>
