<svg xmlns="http://www.w3.org/2000/svg" width="25" height="25" viewBox="0 0 25 25">
  <defs>
    <style>
      .cls-1 {
        fill: #079e84;
        fill-rule: evenodd;
      }
    </style>
  </defs>
  <path class="cls-1" d="M22.1,23.985c-3.187.023-15.848,0.014-18.99,0-2.5-.008-3.6-1.448-2.913-3.825a12.084,12.084,0,0,1,6.082-7.487,2.011,2.011,0,0,1,1.634.033,8.907,8.907,0,0,0,9.2-.027,1.88,1.88,0,0,1,1.522-.054,12.087,12.087,0,0,1,6.276,7.942C25.422,22.527,24.215,23.97,22.1,23.985ZM12.454,11.363A5.726,5.726,0,0,1,6.646,5.69a5.853,5.853,0,0,1,11.7.083A5.735,5.735,0,0,1,12.454,11.363Z"/>
</svg>
