<?xml version="1.0" encoding="iso-8859-1"?>
<!-- Generator: Adobe Illustrator 19.0.0, SVG Export Plug-In . SVG Version: 6.00 Build 0)  -->
<svg version="1.1" id="Capa_1" xmlns="http://www.w3.org/2000/svg" xmlns:xlink="http://www.w3.org/1999/xlink" x="0px" y="0px"
	 viewBox="0 0 386.08 386.08" style="enable-background:new 0 0 386.08 386.08;" xml:space="preserve">
<g>
	<g>
		<path d="M368.08,4.08H18c-9.941,0-18,8.059-18,18v53.2c0,9.941,8.059,18,18,18h53.52v72C62.08,176.08,22.4,222.96,17.6,254
			c-0.03,0.399-0.03,0.801,0,1.2V374c0,4.418,3.582,8,8,8h96.96c2.618-0.004,5.068-1.289,6.56-3.44l40.96-58.96
			c0.512-0.757,0.891-1.595,1.12-2.48c0-1.28,4.24-15.52,8.96-35.04h126.4c4.418,0,8-3.582,8-8V93.28h53.52c9.941,0,18-8.059,18-18
			v-53.2C386.08,12.139,378.021,4.08,368.08,4.08z M180.56,197.04c-5.898,38.602-14.045,76.828-24.4,114.48l-37.84,54.4h-84.8
			V256.16c3.12-18.24,22.64-46.24,38-65.52v83.44c0,4.418,3.582,8,8,8h28.88c0.986-0.008,1.963-0.197,2.88-0.56l0.88-0.48
			c0.573-0.282,1.11-0.631,1.6-1.04l0.72-0.8c0.371-0.444,0.693-0.927,0.96-1.44l0.48-1.04c0,0,0,0,0-0.56
			c8-29.6,25.44-80.72,38.64-92.08c8.96-8,14.16-8.88,16.4-8.88c1.69-0.038,3.296,0.735,4.32,2.08
			C179.199,183.091,181.058,190.048,180.56,197.04z M298.56,266.08H184c4.96-21.68,10-46.64,12.48-67.12
			c0.976-11.411-2.238-22.786-9.04-32c-4.005-4.678-9.841-7.392-16-7.44c-10.19,0.898-19.724,5.409-26.88,12.72
			c-18.56,16-36.32,74.32-42,94.16H87.52V57.04h211.04V266.08z M370.08,75.2c0,1.105-0.895,2-2,2h-53.52V57.04h14.48
			c4.418,0,8-3.582,8-8s-3.582-8-8-8h-272c-4.418,0-8,3.582-8,8s3.582,8,8,8H71.6V77.6H18c-1.105,0-2-0.895-2-2V22.08
			c0-1.105,0.895-2,2-2h350.08c1.105,0,2,0.895,2,2V75.2z"/>
	</g>
</g>
<g>
</g>
<g>
</g>
<g>
</g>
<g>
</g>
<g>
</g>
<g>
</g>
<g>
</g>
<g>
</g>
<g>
</g>
<g>
</g>
<g>
</g>
<g>
</g>
<g>
</g>
<g>
</g>
<g>
</g>
</svg>
